<mxfile host="app.diagrams.net" modified="2024-04-12T11:38:42.539Z" agent="Mozilla/5.0 (Macintosh; Intel Mac OS X 10_15_7) AppleWebKit/537.36 (KHTML, like Gecko) Chrome/123.0.0.0 Safari/537.36" version="24.0.6" etag="VJwHXSjUuaFmA39yafK1" type="github">
  <diagram name="Side-1" id="kG_g2KGasFYP1J_7hNW7">
    <mxGraphModel>
      <root>
        <mxCell id="0" />
        <mxCell id="1" parent="0" />
      </root>
    </mxGraphModel>
  </diagram>
</mxfile>
